<svg xmlns="http://www.w3.org/2000/svg" id="b49f4f68-d79e-4476-a14b-b3f27440c724" data-name="Layer 1" width="995.001" height="836.749" viewBox="0 0 995.001 836.749"><path d="M813.829 123.003c-84.985-.39-161.367 36.692-213.829 95.77-52.462-59.078-128.844-96.16-213.829-95.77-159.585.733-286.771 132.11-283.614 292.786C105.618 571.622 232.02 697 387.5 697q9.048 0 17.96-.56a3110.914 3110.914 0 0 1 389.08 0q8.909.557 17.96.56c155.48 0 281.881-125.378 284.943-281.211 3.157-160.675-124.029-292.053-283.614-292.786z" transform="translate(-102.5 -31.626)" fill="none"/><path d="M759.88 39.083a22.982 22.982 0 0 0-19.81 13.851c-4.953 11.974 1.425 26.039 11 34.77s21.873 13.723 33.048 20.283c15.01 8.81 28.497 21.042 36.007 36.743s8.309 35.15-.519 50.15c-8.194 13.923-23.093 22.255-37.302 29.94" transform="translate(-102.5 -31.626)" fill="none" stroke="#3f3d56" stroke-miterlimit="10"/><ellipse cx="670.001" cy="8.5" rx="17.5" ry="8.5" fill="#57b894"/><ellipse cx="684.001" cy="64.5" rx="17.5" ry="8.5" fill="#57b894"/><ellipse cx="652.001" cy="73.5" rx="17.5" ry="8.5" fill="#57b894"/><ellipse cx="702.001" cy="120.5" rx="17.5" ry="8.5" fill="#57b894"/><ellipse cx="737.001" cy="120.5" rx="17.5" ry="8.5" fill="#57b894"/><path d="M852.36 317.873a22.982 22.982 0 0 0-23.901 3.605c-9.759 8.525-10.296 23.96-5.599 36.036s13.497 22.013 20.593 32.856c9.53 14.563 16.177 31.515 15.927 48.917s-8.177 35.181-22.751 44.696c-13.527 8.83-30.577 9.674-46.722 10.244" transform="translate(-102.5 -31.626)" fill="none" stroke="#3f3d56" stroke-miterlimit="10"/><ellipse cx="863.202" cy="324.415" rx="8.5" ry="17.5" transform="rotate(-63.615 786.457 391.235)" fill="#57b894"/><ellipse cx="850.858" cy="380.803" rx="8.5" ry="17.5" transform="rotate(-63.615 774.112 447.623)" fill="#57b894"/><ellipse cx="818.191" cy="374.645" rx="8.5" ry="17.5" transform="rotate(-63.615 741.446 441.464)" fill="#57b894"/><ellipse cx="842.096" cy="438.969" rx="8.5" ry="17.5" transform="rotate(-63.615 765.351 505.788)" fill="#57b894"/><ellipse cx="873.451" cy="454.522" rx="8.5" ry="17.5" transform="rotate(-63.615 796.705 521.342)" fill="#57b894"/><path d="M400.503 398.035a22.982 22.982 0 0 1 23.543-5.478c12.217 4.318 18.417 18.463 18.512 31.42s-4.412 25.442-7 38.139c-3.478 17.053-3.394 35.26 3.265 51.341s20.593 29.673 37.65 33.132c15.833 3.21 31.989-2.303 47.202-7.736" transform="translate(-102.5 -31.626)" fill="none" stroke="#3f3d56" stroke-miterlimit="10"/><ellipse cx="392.844" cy="408.118" rx="17.5" ry="8.5" transform="rotate(-48.06 306.128 507.253)" fill="#57b894"/><ellipse cx="425.143" cy="455.96" rx="17.5" ry="8.5" transform="rotate(-48.06 338.426 555.095)" fill="#57b894"/><ellipse cx="453.225" cy="438.172" rx="17.5" ry="8.5" transform="rotate(-48.06 366.508 537.307)" fill="#57b894"/><ellipse cx="454.767" cy="506.777" rx="17.5" ry="8.5" transform="rotate(-48.06 368.051 605.912)" fill="#57b894"/><ellipse cx="431.375" cy="532.812" rx="17.5" ry="8.5" transform="rotate(-48.06 344.659 631.946)" fill="#57b894"/><path d="m802.98 282.586-2.75 20.17-17 124.46-27.84 203.82-6.97 51.03a16.255 16.255 0 0 1-16.11 14.06H546.66a16.26 16.26 0 0 1-16.11-14.02l-7.09-51.07-28.31-203.82-17.3-124.55-2.78-20.04a16.255 16.255 0 0 1 16.1-18.5h295.7a16.266 16.266 0 0 1 16.11 18.46z" transform="translate(-102.5 -31.626)" fill="#ff567d"/><rect x="392.001" y="178.5" width="290" height="54" rx="16.26" fill="#2f2e41"/><path d="M784.5 235.646v12.22a16.26 16.26 0 0 1-16.26 16.26H510.76a16.26 16.26 0 0 1-16.26-16.26v-12.19a1527 1527 0 0 0 290-.03z" transform="translate(-102.5 -31.626)" opacity=".1"/><circle cx="459.501" cy="343" r="44" fill="#2f2e41"/><circle cx="615.501" cy="343" r="44" fill="#2f2e41"/><circle cx="457.501" cy="343" r="12" fill="#fff"/><circle cx="475.501" cy="320" r="5" fill="#fff"/><circle cx="615.501" cy="343" r="12" fill="#fff"/><circle cx="633.501" cy="320" r="5" fill="#fff"/><path d="M802.055 274.626h.002c-.004-.013-.01-.024-.015-.036a16.257 16.257 0 0 0-1.641-3.186l-.002-.003a16.33 16.33 0 0 0-.618-.86c-.071-.095-.145-.187-.218-.279a16.372 16.372 0 0 0-2.073-2.16 16.303 16.303 0 0 0-1.11-.89 16.226 16.226 0 0 0-.782-.528c-.21-.134-.42-.266-.636-.39q-.5-.29-1.021-.544c-.166-.08-.334-.155-.504-.23q-.498-.222-1.015-.409c-.138-.05-.274-.106-.415-.152q-.714-.239-1.458-.411c-.122-.028-.246-.048-.369-.074q-.608-.126-1.233-.205a16.42 16.42 0 0 0-2.076-.143H491.17a16.304 16.304 0 0 0-16.101 18.495l.47 3.381 2.311 16.664h.003l17.298 124.55h-.001l22.708 163.49 12.694 91.397a16.26 16.26 0 0 0 16.105 14.023h8.81a16.24 16.24 0 0 1-.915-3.523l-8.55-61.567H755.39l27.84-203.82H517.693l-17.022-122.557a1718.367 1718.367 0 0 0 299.559-1.903l2.75-20.17a16.137 16.137 0 0 0-.925-7.96z" transform="translate(-102.5 -31.626)" opacity=".1"/><path d="M826.241 291.126a1720.993 1720.993 0 0 1-373.482 0 16.259 16.259 0 0 1-16.259-16.26v-21.481a16.259 16.259 0 0 1 16.26-16.26 1530.25 1530.25 0 0 0 373.481 0 16.259 16.259 0 0 1 16.259 16.26v21.482a16.259 16.259 0 0 1-16.259 16.259zM763.034 623.626H513.05a9.428 9.428 0 0 1-9.31-7.95L476.73 445.53a9.428 9.428 0 0 1 9.311-10.905h305.8a9.428 9.428 0 0 1 9.295 11.001L772.33 615.772a9.428 9.428 0 0 1-9.296 7.854z" transform="translate(-102.5 -31.626)" fill="#2f2e41"/><path d="M734.589 502.347a6.662 6.662 0 0 1 3.653 11.12c-15.861 16.907-54.318 52.159-99.242 52.159s-83.381-35.252-99.242-52.16a6.662 6.662 0 0 1 3.653-11.12 528.227 528.227 0 0 1 191.178 0z" transform="translate(-102.5 -31.626)" fill="#ff567d"/><path d="M688.998 512.89a6.663 6.663 0 0 1 3.621 11.331c-10.74 10.473-30.732 26.264-53.619 26.264s-42.878-15.791-53.62-26.264a6.663 6.663 0 0 1 3.622-11.331 305.156 305.156 0 0 1 99.996 0z" transform="translate(-102.5 -31.626)" fill="#fff"/><path fill="none" stroke="#3f3d56" stroke-miterlimit="10" d="M126.501 665h691"/><path d="M286.152 604.07v28.131l14.445 16.726s6.083-2.28 6.083-17.486l2.28-22.049z" transform="translate(-102.5 -31.626)" fill="#a0616a"/><path d="M300.597 632.201s-23.569-15.966-24.329-21.288-34.213-29.651-28.89-14.446 22.047 22.049 22.047 22.049 12.925 34.973 24.33 34.213 11.404-15.206 6.842-20.528z" transform="translate(-102.5 -31.626)" fill="#a0616a"/><path fill="#3f3d56" d="m211.783 771.64 2.281 13.685-12.165-3.041V771.64h9.884z"/><path d="M312.002 810.869s-14.06-8.33-14.633-4.545-6.655 18.23-9.697 19.75-6.842 18.247 0 17.487c5.3-.589 24.738-10.755 33.235-15.31a4.643 4.643 0 0 0 1.996-6.067 9.579 9.579 0 0 1-1.018-2.952c0-1.52-9.883-8.363-9.883-8.363z" transform="translate(-102.5 -31.626)" fill="#2f2e41"/><path d="M318.844 656.53s-55.5 25.85-50.179 45.617 25.09 103.4 25.09 103.4 22.048 5.322 23.569 0-14.446-88.194-12.925-91.235 29.651-22.809 29.651-22.809l57.782-24.329-24.33-22.808z" transform="translate(-102.5 -31.626)" fill="#2f2e41"/><path fill="#3f3d56" d="m174.529 776.202-6.843 17.487 12.165 5.322 7.603-13.686-12.925-9.123z"/><path d="M318.084 531.843s6.843 9.123 1.52 13.685-1.52 21.288-1.52 21.288l6.843 19.007 27.37-5.322V549.33l-1.52-15.206s-13.686-12.925-15.206-22.809-17.487 20.528-17.487 20.528z" transform="translate(-102.5 -31.626)" fill="#a0616a"/><path d="M318.084 531.843s6.843 9.123 1.52 13.685-1.52 21.288-1.52 21.288l6.843 19.007 27.37-5.322V549.33l-1.52-15.206s-13.686-12.925-15.206-22.809-17.487 20.528-17.487 20.528z" transform="translate(-102.5 -31.626)" opacity=".1"/><path d="M363.701 650.448s-35.733 39.535-35.733 41.055-19.007 32.693-19.007 32.693l-37.255 82.871s14.446 19.768 20.528 18.247 49.419-89.714 49.419-89.714 7.603-19.767 28.13-24.329 36.494-20.528 28.892-38.775-34.974-22.048-34.974-22.048z" transform="translate(-102.5 -31.626)" fill="#2f2e41"/><circle cx="215.585" cy="481.21" r="24.329" fill="#a0616a"/><path d="M318.844 552.37s3.041 17.487 6.083 19.008 5.322 6.842 12.164-.76 12.925-22.81 12.925-22.81l23.57 28.892 2.28 79.83s-26.61-6.842-34.973 0-26.61 6.083-26.61 6.083l3.801-15.206-3.041-25.85.76-23.569.76-16.726z" transform="translate(-102.5 -31.626)" fill="#f2f2f2"/><path d="M321.523 539.574s-10.282 5.194-11.042 8.235-14.445 9.123-14.445 9.123-5.322 5.322-5.322 8.364 18.247 38.014 18.247 38.014 3.8 23.569 2.28 28.13 3.042 22.049 3.042 22.049l-9.124 10.644h8.363s9.124-4.562 9.124-6.843-1.52-18.246-2.281-25.09-.76-31.17.76-39.534.76-30.412.76-35.734-.362-17.358-.362-17.358zM345.074 528.029s3.422.773 13.305 3.814 25.09 7.603 30.412 13.685a94.247 94.247 0 0 1 9.883 14.446l-3.04 54.74s6.082 11.405 5.321 17.487-6.842 6.843-2.28 19.767 13.685 24.33 5.321 25.85-30.411-3.801-40.295-.76-21.288-11.404-21.288-11.404 15.206 1.52 12.925-4.562-27.37-74.508-22.048-89.714 11.784-43.35 11.784-43.35z" transform="translate(-102.5 -31.626)" fill="#3f3d56"/><path d="m294.515 561.494-3.801 3.041s-10.644 38.015-7.603 41.816 27.37 12.165 28.89 6.843-17.486-51.7-17.486-51.7z" transform="translate(-102.5 -31.626)" fill="#3f3d56"/><path d="M407.038 588.104s11.404 32.693 11.404 41.816-1.52 62.344-1.52 62.344-.76 22.808-16.727 13.685 0-15.206 0-15.206-.76-60.063-6.842-68.426-8.364-20.528-8.364-20.528z" transform="translate(-102.5 -31.626)" fill="#a0616a"/><path d="M282.35 824.554s-11.404-6.082-13.685-1.52-14.445 29.65-12.925 32.692 9.884 15.206 19.768 12.164 10.644-19.007 10.644-19.007l.76-18.247zM313.32 506.959c1.676.789 3.664 1.26 4.717 2.784.78 1.129.858 2.596 1.427 3.845a5.437 5.437 0 0 0 6.996 2.558 6.032 6.032 0 0 1 2.46-3.736 3.583 3.583 0 0 1 4.253.234c1.567 1.494 1.013 4.1 1.744 6.137a12.953 12.953 0 0 0 2.786 3.82c1.664 1.92 2.99 4.172 4.994 5.734s5.043 2.24 7.034.66c1.674-1.327 2.02-3.776 1.614-5.873s-1.414-4.029-1.983-6.088c-1.848-6.692 1.098-13.836.187-20.719-1.168-8.818-8.663-15.784-17.03-18.807a19.922 19.922 0 0 0-10.993-1.164c-3.826.854-7.095 3.29-10.759 4.683-3.918 1.49-8.18 1.75-12.28 2.62s-8.32 2.555-10.7 6.007c-1.66 2.407-2.23 5.396-3.606 7.977a14.311 14.311 0 0 1-7.249 6.494l4.335-.247a12.777 12.777 0 0 1-3.454 5.04 9.27 9.27 0 0 0 6.001-.792 6.523 6.523 0 0 1-2.237 4.676c3.335-.1 6.853-.254 9.671-2.041 1.38-.875 2.507-2.094 3.806-3.086 2.77-2.115 6.205-3.119 9.554-4.08 1.758-.505 3.875-1.206 5.466-.075 1.324.942 1.533 2.633 3.246 3.439z" transform="translate(-102.5 -31.626)" fill="#2f2e41"/><path d="m387.27 550.85 11.405 9.124 15.205 34.973s-21.288 16.726-26.61 14.445-14.445-42.576-14.445-42.576z" transform="translate(-102.5 -31.626)" fill="#3f3d56"/><path d="m273.91 586.172-.19 1.397-1.178 8.624-1.93 14.122-.482 3.536a1.126 1.126 0 0 1-1.117.974H256.15a1.127 1.127 0 0 1-1.116-.972l-.491-3.538-1.962-14.122-1.198-8.63-.193-1.389a1.126 1.126 0 0 1 1.115-1.281h20.489a1.127 1.127 0 0 1 1.116 1.279z" transform="translate(-102.5 -31.626)" fill="#ff567d"/><rect x="150.037" y="549.526" width="20.093" height="3.742" rx="1.127" fill="#2f2e41"/><path d="M275.522 586.763a119.242 119.242 0 0 1-25.878 0 1.127 1.127 0 0 1-1.126-1.126v-1.489a1.127 1.127 0 0 1 1.126-1.126 106.027 106.027 0 0 0 25.878 0 1.127 1.127 0 0 1 1.126 1.126v1.489a1.127 1.127 0 0 1-1.126 1.126zM271.142 609.801h-17.32a.653.653 0 0 1-.646-.55l-1.87-11.79a.653.653 0 0 1 .644-.755h21.188a.653.653 0 0 1 .644.762l-1.996 11.79a.653.653 0 0 1-.644.543z" transform="translate(-102.5 -31.626)" fill="#2f2e41"/></svg>